<?xml version="1.0"?>
<svg xmlns="http://www.w3.org/2000/svg" viewBox="0 0 24 24">
    <path d="M 12.8125 2 C 10.5125 2 8.3875 2.8125 7.1875 4.3125 C 6.3875 5.2125 5.5875 6.8125 5.6875 9.3125 C 5.1875 9.6125 4.79375 9.9 4.59375 10.5 C 3.99375 11.8 4.30625 13.70625 5.40625 15.40625 C 3.40625 16.40625 2 18.9 2 22 L 5 22 L 6 22 L 7 22 C 7 21.6 7.29375 21.00625 7.59375 20.40625 C 8.29375 19.00625 9.1125 17.00625 7.8125 15.40625 C 6.6125 14.00625 6.3125 12.6125 6.3125 11.8125 C 6.7125 12.5125 7.09375 13.00625 7.59375 13.40625 C 8.19375 13.90625 8.60625 14.30625 8.90625 15.40625 C 9.10625 16.40625 9.5 17.9 10 18.5 C 10 19 9.59375 19.49375 9.09375 20.09375 C 8.49375 20.49375 8 21.2 8 22 L 10 22 C 10 21.9 10.39375 21.4875 10.59375 21.1875 C 10.99375 20.7875 11.3875 20.2875 11.6875 19.6875 C 12.1875 19.8875 12.8 20 13.5 20 C 13.6 20 14.7125 19.89375 15.3125 19.59375 C 15.6125 20.29375 15.90625 20.7875 16.40625 21.1875 C 16.70625 21.3875 16.9 21.8 17 22 L 19 22 C 19 21.2 18.60625 20.40625 17.90625 19.90625 C 17.10625 19.20625 16.90625 18.09375 16.90625 18.09375 C 17.50625 17.09375 17.6125 15.89375 17.8125 14.59375 C 17.9125 13.29375 18.0875 11.90625 18.6875 10.40625 C 18.8875 10.00625 19 9.5875 19 9.1875 C 19.8 10.0875 19.4 13.1125 19 15.8125 C 18.6 18.3125 19.19375 19.59375 19.59375 20.59375 C 19.79375 21.09375 20 21.50625 20 21.90625 L 22 21.90625 C 22 21.20625 21.7 20.60625 21.5 19.90625 C 21.1 19.00625 20.7 17.99375 21 16.09375 C 21.5 12.49375 22 9.40625 20.5 7.90625 C 20.1 7.40625 19.50625 7.19375 18.90625 7.09375 C 18.70625 6.29375 18.4 5.6 18 5 C 16.8 3.2 14.8125 2 12.8125 2 z M 12.90625 3.90625 C 14.20625 3.90625 15.50625 4.7 16.40625 6 C 17.10625 7.3 17.30625 8.59375 16.90625 9.59375 C 16.20625 11.29375 16.00625 13.0125 15.90625 14.3125 C 15.70625 16.0125 15.6125 17 14.8125 17.5 C 14.4125 17.8 13.6 17.90625 13.5 17.90625 C 11.7 17.90625 11.40625 17.00625 10.90625 14.90625 L 10.8125 14.59375 C 10.4125 12.99375 9.6 12.2875 9 11.6875 C 8.4 11.0875 8.00625 10.7875 7.90625 9.6875 C 7.60625 7.8875 7.9125 6.5 8.8125 5.5 C 9.7125 4.5 11.20625 3.90625 12.90625 3.90625 z M 10 8 C 9.4477153 8 9 8.4477153 9 9 C 9 9.5522847 9.4477153 10 10 10 C 10.552285 10 11 9.5522847 11 9 C 11 8.4477153 10.552285 8 10 8 z M 14 8 C 13.447715 8 13 8.4477153 13 9 C 13 9.5522847 13.447715 10 14 10 C 14.552285 10 15 9.5522847 15 9 C 15 8.4477153 14.552285 8 14 8 z M 12.59375 12.6875 C 11.992945 12.777527 11.663696 13.829638 11.84375 15.03125 C 12.023804 16.232861 12.649195 17.121277 13.25 17.03125 C 13.850806 16.941223 14.180054 15.889111 14 14.6875 C 13.819946 13.485888 13.194556 12.597473 12.59375 12.6875 z"/>
</svg>
